<svg width="32" height="32" viewBox="0 0 32 32" fill="none" xmlns="http://www.w3.org/2000/svg">
<path d="M24.9829 30.7161C23.2409 32.4048 21.3389 32.1382 19.5081 31.3383C17.5705 30.5206 15.793 30.485 13.7488 31.3383C11.1891 32.4403 9.83816 32.1204 8.30947 30.7161C-0.364994 21.775 0.914845 8.15897 10.7625 7.66126C13.1622 7.78568 14.8331 8.97664 16.2374 9.0833C18.3349 8.65668 20.3435 7.43017 22.5832 7.59015C25.2673 7.80346 27.2937 8.86999 28.6269 10.7897C23.0809 14.1138 24.3963 21.4195 29.4801 23.4637C28.4669 26.13 27.1515 28.7786 24.9651 30.7339L24.9829 30.7161ZM16.0596 7.5546C15.793 3.59066 19.0103 0.31996 22.7077 0C23.2231 4.58609 18.5482 7.99899 16.0596 7.5546Z" fill="#F4F4F5"/>
</svg>
