<svg width="32" height="32" viewBox="0 0 32 32" fill="none" xmlns="http://www.w3.org/2000/svg">
<path d="M2.81702 0L18.8123 16L2.81859 32C2.53419 31.8804 2.29148 31.6794 2.12099 31.4223C1.95051 31.1652 1.85985 30.8634 1.86042 30.5549V1.44669C1.86023 1.13827 1.95084 0.836617 2.12095 0.579351C2.29107 0.322086 2.53315 0.120593 2.81702 0ZM19.9229 17.1105L23.5388 20.7265L6.35914 30.6743L19.9229 17.1105ZM24.9478 12.0872L29.357 14.6413C29.595 14.7794 29.7926 14.9775 29.9299 15.216C30.0673 15.4545 30.1396 15.7248 30.1396 16C30.1396 16.2752 30.0673 16.5455 29.9299 16.784C29.7926 17.0225 29.595 17.2206 29.357 17.3587L24.9462 19.9128L21.0334 16L24.9478 12.0872ZM6.35914 1.32574L23.5404 11.2719L19.9229 14.8895L6.35914 1.32574Z" fill="#F4F4F5"/>
</svg>
